<svg xmlns="http://www.w3.org/2000/svg" xmlns:xlink="http://www.w3.org/1999/xlink" width="1440" height="607" viewBox="0 0 1440 607">
    <defs>
        <path id="a" d="M117.343.82v10.488H.469V.82h116.874z"/>
    </defs>
    <g fill="none" fill-rule="evenodd" opacity=".1">
        <path fill="#F38162" d="M-30.43 8.048A5.233 5.233 0 0 1-25.747.476L80.656.46c2.894.004 5.222 2.35 5.237 5.234a5.237 5.237 0 0 1-5.234 5.236l-106.405.017a5.225 5.225 0 0 1-4.684-2.898"/>
        <path fill="#F2B55D" d="M75.973 8.031A5.233 5.233 0 0 1 80.656.46L187.06.441a5.235 5.235 0 0 1 .002 10.47l-106.404.018a5.226 5.226 0 0 1-4.685-2.898"/>
        <path fill="#67B145" d="M310.069 50.554a5.31 5.31 0 0 1-.551-2.336 5.236 5.236 0 0 1 5.234-5.236l106.404-.017a5.234 5.234 0 1 1 .002 10.47l-106.404.017a5.242 5.242 0 0 1-4.685-2.898M224.953 93.13a5.232 5.232 0 0 1 4.683-7.571l106.403-.019c2.89-.005 5.231 2.345 5.236 5.235a5.232 5.232 0 0 1-5.234 5.235l-106.404.017a5.218 5.218 0 0 1-4.684-2.898"/>
        <path fill="#658D95" d="M-30.395 220.856a5.232 5.232 0 0 1 4.683-7.571l106.404-.018c2.894.004 5.222 2.349 5.236 5.235a5.238 5.238 0 0 1-5.235 5.236l-106.403.016a5.223 5.223 0 0 1-4.685-2.898"/>
        <path fill="#67B145" d="M288.781 7.996a5.313 5.313 0 0 1-.55-2.336 5.236 5.236 0 0 1 5.233-5.236L399.868.407a5.238 5.238 0 0 1 5.236 5.234 5.233 5.233 0 0 1-5.235 5.235l-106.404.018a5.244 5.244 0 0 1-4.684-2.898"/>
        <path fill="#F2B55D" d="M203.665 50.572A5.232 5.232 0 0 1 208.348 43l106.404-.018c2.89-.005 5.228 2.34 5.236 5.235a5.234 5.234 0 0 1-5.235 5.236l-106.403.017a5.22 5.22 0 0 1-4.685-2.898"/>
        <path fill="#F38162" d="M33.433 135.723a5.232 5.232 0 0 1 4.683-7.572l106.404-.018c2.894.004 5.219 2.345 5.236 5.235a5.236 5.236 0 0 1-5.234 5.235l-106.404.017a5.226 5.226 0 0 1-4.685-2.897"/>
        <path fill="#67B145" d="M607.993 7.944a5.313 5.313 0 0 1-.551-2.336 5.237 5.237 0 0 1 5.234-5.237L719.08.354a5.24 5.24 0 0 1 5.236 5.234 5.233 5.233 0 0 1-5.234 5.236l-106.404.017a5.244 5.244 0 0 1-4.685-2.897"/>
        <path fill="#658D95" d="M522.877 50.52a5.314 5.314 0 0 1-.55-2.337 5.236 5.236 0 0 1 5.233-5.236l106.403-.018a5.242 5.242 0 0 1 5.237 5.235 5.234 5.234 0 0 1-5.235 5.236l-106.403.017a5.241 5.241 0 0 1-4.685-2.897M437.761 93.095a5.3 5.3 0 0 1-.552-2.336 5.236 5.236 0 0 1 5.234-5.236l106.404-.018a5.24 5.24 0 0 1 5.236 5.235 5.232 5.232 0 0 1-5.234 5.235l-106.404.017a5.24 5.24 0 0 1-4.684-2.897M267.529 178.247a5.232 5.232 0 0 1 4.682-7.572l106.404-.018a5.238 5.238 0 0 1 5.236 5.233 5.232 5.232 0 0 1-5.234 5.237l-106.404.017a5.218 5.218 0 0 1-4.684-2.897M182.412 220.822a5.163 5.163 0 0 1-.55-2.336 5.232 5.232 0 0 1 5.233-5.236l106.403-.018a5.24 5.24 0 0 1 5.237 5.235 5.237 5.237 0 0 1-5.234 5.236l-106.404.016a5.224 5.224 0 0 1-4.685-2.897M12.18 305.973a5.232 5.232 0 0 1 4.683-7.572l106.404-.018c2.894.004 5.222 2.349 5.235 5.235a5.235 5.235 0 0 1-5.234 5.235l-106.403.017a5.226 5.226 0 0 1-4.685-2.897"/>
        <path fill="#F38162" d="M501.59 7.96a5.313 5.313 0 0 1-.552-2.335 5.236 5.236 0 0 1 5.234-5.236L612.676.372a5.234 5.234 0 1 1 .002 10.47l-106.404.017a5.242 5.242 0 0 1-4.685-2.898"/>
        <path fill="#F2B55D" d="M416.473 50.536a5.324 5.324 0 0 1-.552-2.335 5.236 5.236 0 0 1 5.235-5.236l106.404-.019a5.241 5.241 0 0 1 5.235 5.236 5.233 5.233 0 0 1-5.234 5.235l-106.403.018a5.242 5.242 0 0 1-4.685-2.899"/>
        <path fill="#F38162" d="M565.453 135.635a5.296 5.296 0 0 1-.551-2.336 5.235 5.235 0 0 1 5.234-5.235l106.406-.014a5.241 5.241 0 0 1 5.236 5.234 5.233 5.233 0 0 1-5.234 5.236l-106.407.013a5.242 5.242 0 0 1-4.684-2.898M-30.36 433.664a5.232 5.232 0 0 1 4.683-7.572l106.405-.013c2.894.004 5.222 2.35 5.236 5.233a5.235 5.235 0 0 1-5.234 5.237l-106.406.012a5.224 5.224 0 0 1-4.685-2.897"/>
        <path fill="#F2B55D" d="M714.397 7.926a5.324 5.324 0 0 1-.552-2.336A5.237 5.237 0 0 1 719.08.354L825.493.332c2.89-.006 5.233 2.35 5.236 5.234a5.237 5.237 0 0 1-5.234 5.236l-106.413.022a5.24 5.24 0 0 1-4.685-2.898"/>
        <path fill="#F38162" d="M544.165 93.077a5.314 5.314 0 0 1-.551-2.337 5.236 5.236 0 0 1 5.234-5.235l106.404-.017a5.243 5.243 0 0 1 5.236 5.235 5.232 5.232 0 0 1-5.234 5.234l-106.404.017a5.241 5.241 0 0 1-4.685-2.897"/>
        <path fill="#67B145" d="M459.049 135.653a5.31 5.31 0 0 1-.552-2.336 5.237 5.237 0 0 1 5.234-5.236l106.405-.017a5.241 5.241 0 0 1 5.235 5.234 5.233 5.233 0 0 1-5.234 5.236l-106.404.017a5.244 5.244 0 0 1-4.684-2.898M373.932 178.229a5.314 5.314 0 0 1-.55-2.337 5.235 5.235 0 0 1 5.233-5.235l106.404-.018a5.242 5.242 0 0 1 5.236 5.234 5.233 5.233 0 0 1-5.234 5.236l-106.404.017a5.241 5.241 0 0 1-4.685-2.897M203.7 263.38a5.233 5.233 0 0 1 4.683-7.572l106.404-.018a5.242 5.242 0 0 1 5.236 5.234 5.236 5.236 0 0 1-5.234 5.236l-106.404.017a5.225 5.225 0 0 1-4.685-2.898"/>
        <path fill="#658D95" d="M118.584 305.955a5.232 5.232 0 0 1 4.683-7.572l106.404-.018c2.893.004 5.224 2.354 5.236 5.234a5.237 5.237 0 0 1-5.235 5.236l-106.403.017a5.226 5.226 0 0 1-4.685-2.897"/>
        <path fill="#F2B55D" d="M-51.648 391.106a5.233 5.233 0 0 1 4.683-7.572l106.404-.017c2.894.004 5.224 2.354 5.236 5.234a5.237 5.237 0 0 1-5.235 5.236l-106.403.017a5.225 5.225 0 0 1-4.685-2.898"/>
        <path fill="#658D95" d="M1033.62 7.873a5.233 5.233 0 0 1 4.683-7.571l106.405-.018c2.893.004 5.219 2.344 5.235 5.234a5.237 5.237 0 0 1-5.234 5.236l-106.404.017a5.224 5.224 0 0 1-4.684-2.898M948.504 50.45a5.233 5.233 0 0 1 4.684-7.572l106.403-.018a5.239 5.239 0 0 1 5.236 5.235 5.237 5.237 0 0 1-5.234 5.236l-106.404.016a5.227 5.227 0 0 1-4.685-2.897"/>
        <path fill="#F2B55D" d="M693.146 178.181a5.314 5.314 0 0 1-.55-2.337 5.236 5.236 0 0 1 5.233-5.235l106.404-.018a5.234 5.234 0 1 1 .002 10.47l-106.404.017a5.244 5.244 0 0 1-4.685-2.897"/>
        <path fill="#F38162" d="M12.218 518.784a5.147 5.147 0 0 1-.552-2.336 5.231 5.231 0 0 1 5.234-5.235l106.404-.017c2.894.003 5.22 2.344 5.237 5.235a5.237 5.237 0 0 1-5.236 5.234l-106.404.018a5.224 5.224 0 0 1-4.683-2.899"/>
        <path fill="#F2B55D" d="M-72.899 561.36a5.233 5.233 0 0 1 4.683-7.572l106.404-.017c2.893.004 5.22 2.345 5.235 5.235a5.237 5.237 0 0 1-5.234 5.236l-106.403.016a5.224 5.224 0 0 1-4.685-2.897"/>
        <path fill="#F38162" d="M756.975 93.047a5.3 5.3 0 0 1-.552-2.337 5.236 5.236 0 0 1 5.235-5.235l106.413-.022c2.89-.006 5.233 2.35 5.236 5.234a5.237 5.237 0 0 1-5.234 5.236l-106.413.021a5.236 5.236 0 0 1-4.685-2.897"/>
        <path fill="#F2B55D" d="M671.859 135.622a5.31 5.31 0 0 1-.551-2.336 5.237 5.237 0 0 1 5.234-5.236l106.403-.017a5.241 5.241 0 0 1 5.237 5.234 5.234 5.234 0 0 1-5.235 5.236l-106.403.016a5.242 5.242 0 0 1-4.685-2.897"/>
        <path fill="#F38162" d="M416.51 263.349a5.296 5.296 0 0 1-.55-2.336 5.236 5.236 0 0 1 5.233-5.236l106.403-.017a5.234 5.234 0 1 1 .002 10.47l-106.404.017a5.244 5.244 0 0 1-4.684-2.898"/>
        <path fill="#F2B55D" d="M331.394 305.924a5.233 5.233 0 0 1 4.683-7.571l106.404-.018c2.89-.005 5.233 2.35 5.236 5.235a5.233 5.233 0 0 1-5.235 5.235l-106.403.017a5.218 5.218 0 0 1-4.685-2.898"/>
        <path fill="#F38162" d="M161.162 391.076a5.233 5.233 0 0 1 4.683-7.572l106.404-.017c2.894.003 5.224 2.353 5.236 5.233a5.237 5.237 0 0 1-5.234 5.236l-106.404.017a5.225 5.225 0 0 1-4.685-2.897"/>
        <path fill="#F2B55D" d="M76.046 433.652a5.232 5.232 0 0 1 4.682-7.572l106.405-.018c2.893.004 5.224 2.354 5.235 5.235a5.235 5.235 0 0 1-5.234 5.235l-106.404.017a5.224 5.224 0 0 1-4.684-2.897"/>
        <path fill="#F38162" d="M-94.186 518.802a5.233 5.233 0 0 1 4.682-7.572l106.405-.017c2.893.004 5.224 2.354 5.235 5.235a5.236 5.236 0 0 1-5.234 5.235l-106.404.017a5.223 5.223 0 0 1-4.684-2.898M1246.428 7.84a5.233 5.233 0 0 1 4.683-7.572l106.404-.019c2.892 0 5.221 2.35 5.236 5.234a5.235 5.235 0 0 1-5.235 5.236l-106.403.017a5.223 5.223 0 0 1-4.685-2.897"/>
        <path fill="#F2B55D" d="M1076.196 92.99a5.232 5.232 0 0 1 4.683-7.571l106.404-.02c2.892 0 5.222 2.35 5.235 5.236a5.235 5.235 0 0 1-5.234 5.236l-106.403.017a5.225 5.225 0 0 1-4.685-2.898M480.374 391.024a5.314 5.314 0 0 1-.551-2.337 5.235 5.235 0 0 1 5.234-5.235l106.403-.018a5.239 5.239 0 0 1 5.237 5.234 5.233 5.233 0 0 1-5.235 5.236l-106.403.017a5.241 5.241 0 0 1-4.685-2.897"/>
        <path fill="#F38162" d="M310.141 476.175a5.167 5.167 0 0 1-.55-2.337 5.233 5.233 0 0 1 5.233-5.236l106.403-.018a5.24 5.24 0 0 1 5.237 5.235 5.236 5.236 0 0 1-5.235 5.236l-106.403.017a5.226 5.226 0 0 1-4.685-2.897M139.91 561.326a5.233 5.233 0 0 1 4.683-7.572l106.402-.018c2.893 0 5.223 2.35 5.236 5.235a5.236 5.236 0 0 1-5.234 5.236l-106.403.017a5.226 5.226 0 0 1-4.685-2.898"/>
        <path fill="#67B145" d="M1054.908 50.432a5.231 5.231 0 0 1 4.683-7.572l106.404-.018c2.892 0 5.222 2.35 5.235 5.235a5.236 5.236 0 0 1-5.233 5.236l-106.404.017a5.226 5.226 0 0 1-4.685-2.898"/>
        <path fill="#658D95" d="M969.792 93.007a5.233 5.233 0 0 1 4.684-7.572l106.403-.017a5.238 5.238 0 0 1 5.236 5.234 5.237 5.237 0 0 1-5.234 5.236l-106.404.017a5.228 5.228 0 0 1-4.685-2.898M629.318 263.314a5.306 5.306 0 0 1-.55-2.336 5.236 5.236 0 0 1 5.233-5.236l106.404-.017a5.238 5.238 0 0 1 5.236 5.234 5.234 5.234 0 0 1-5.234 5.236l-106.404.017a5.242 5.242 0 0 1-4.685-2.898"/>
        <path fill="#67B145" d="M544.202 305.889a5.306 5.306 0 0 1-.552-2.335 5.237 5.237 0 0 1 5.235-5.236l106.403-.018a5.239 5.239 0 0 1 5.236 5.235 5.233 5.233 0 0 1-5.234 5.236l-106.403.016a5.24 5.24 0 0 1-4.685-2.898"/>
        <path fill="#F2B55D" d="M203.738 476.192a5.233 5.233 0 0 1 4.683-7.572l106.403-.018c2.892 0 5.222 2.35 5.236 5.235a5.237 5.237 0 0 1-5.233 5.236l-106.404.017a5.226 5.226 0 0 1-4.685-2.898"/>
        <path fill="#F38162" d="M118.621 518.767a5.169 5.169 0 0 1-.55-2.335 5.23 5.23 0 0 1 5.233-5.236l106.404-.018c2.892-.001 5.222 2.349 5.236 5.235a5.237 5.237 0 0 1-5.235 5.235l-106.403.017a5.223 5.223 0 0 1-4.685-2.898"/>
        <path fill="#F2B55D" d="M1374.12 50.38a5.234 5.234 0 0 1 4.683-7.572l106.404-.018c2.89-.005 5.22 2.344 5.235 5.235.006 2.888-2.342 5.234-5.234 5.235l-106.403.017a5.22 5.22 0 0 1-4.685-2.898M1118.771 178.106a5.232 5.232 0 0 1 4.683-7.572l106.404-.017c2.894.004 5.22 2.344 5.236 5.235a5.236 5.236 0 0 1-5.234 5.235l-106.404.017a5.226 5.226 0 0 1-4.685-2.898"/>
        <path fill="#F38162" d="M863.414 305.837a5.324 5.324 0 0 1-.552-2.336 5.237 5.237 0 0 1 5.235-5.236l106.413-.022a5.236 5.236 0 0 1 .002 10.47l-106.413.022a5.24 5.24 0 0 1-4.685-2.898M608.066 433.564a5.324 5.324 0 0 1-.552-2.336 5.237 5.237 0 0 1 5.235-5.236l106.404-.018a5.24 5.24 0 0 1 5.235 5.235 5.233 5.233 0 0 1-5.234 5.236l-106.403.017a5.244 5.244 0 0 1-4.685-2.898"/>
        <path fill="#F2B55D" d="M352.717 561.29a5.147 5.147 0 0 1-.551-2.336 5.233 5.233 0 0 1 5.234-5.236l106.403-.017a5.239 5.239 0 0 1 5.237 5.234 5.237 5.237 0 0 1-5.235 5.236l-106.403.017a5.225 5.225 0 0 1-4.685-2.898"/>
        <path fill="#F38162" d="M1352.833 7.822a5.232 5.232 0 0 1 4.682-7.572l106.404-.018c2.89-.005 5.225 2.354 5.235 5.234a5.231 5.231 0 0 1-5.233 5.236l-106.404.018a5.218 5.218 0 0 1-4.684-2.898"/>
        <path fill="#658D95" d="M1012.368 178.123a5.234 5.234 0 0 1 4.683-7.572l106.403-.018a5.243 5.243 0 0 1 5.236 5.235 5.237 5.237 0 0 1-5.234 5.236l-106.404.017a5.223 5.223 0 0 1-4.684-2.898M927.252 220.7a5.233 5.233 0 0 1 4.683-7.572l106.404-.018c2.893.004 5.224 2.354 5.235 5.234a5.235 5.235 0 0 1-5.234 5.236l-106.403.017a5.224 5.224 0 0 1-4.685-2.897"/>
        <path fill="#67B145" d="M757.01 305.855a5.313 5.313 0 0 1-.552-2.336 5.237 5.237 0 0 1 5.236-5.236l106.403-.018a5.243 5.243 0 0 1 5.236 5.235 5.233 5.233 0 0 1-5.235 5.236l-106.402.016a5.243 5.243 0 0 1-4.687-2.897"/>
        <path fill="#658D95" d="M501.661 433.581a5.313 5.313 0 0 1-.55-2.336 5.236 5.236 0 0 1 5.233-5.236l106.404-.018a5.243 5.243 0 0 1 5.236 5.235 5.234 5.234 0 0 1-5.234 5.236l-106.404.017a5.244 5.244 0 0 1-4.685-2.898"/>
        <path fill="#67B145" d="M416.546 476.157a5.234 5.234 0 0 1 4.682-7.572l106.404-.018c2.89-.005 5.233 2.35 5.236 5.235a5.232 5.232 0 0 1-5.234 5.236l-106.404.017a5.218 5.218 0 0 1-4.684-2.898M331.429 518.733a5.232 5.232 0 0 1 4.683-7.572l106.404-.018a5.243 5.243 0 0 1 5.236 5.235 5.236 5.236 0 0 1-5.234 5.235l-106.404.017a5.224 5.224 0 0 1-4.685-2.897M246.313 561.308a5.233 5.233 0 0 1 4.683-7.572l106.403-.018c2.894.005 5.225 2.355 5.237 5.235a5.237 5.237 0 0 1-5.235 5.236l-106.404.017a5.226 5.226 0 0 1-4.684-2.898"/>
        <path fill="#F2B55D" d="M1416.695 135.495a5.232 5.232 0 0 1 4.683-7.572l106.404-.017c2.892 0 5.222 2.35 5.236 5.234a5.234 5.234 0 0 1-5.234 5.237l-106.404.017a5.22 5.22 0 0 1-4.685-2.899"/>
        <path fill="#658D95" d="M1331.579 178.07a5.157 5.157 0 0 1-.551-2.335 5.232 5.232 0 0 1 5.235-5.235l106.403-.018c2.894.004 5.222 2.35 5.236 5.235a5.236 5.236 0 0 1-5.234 5.235l-106.403.017a5.224 5.224 0 0 1-4.686-2.898M1246.463 220.647a5.232 5.232 0 0 1 4.684-7.572l106.403-.018c2.894.005 5.222 2.35 5.236 5.235a5.237 5.237 0 0 1-5.234 5.236l-106.403.017a5.228 5.228 0 0 1-4.686-2.898"/>
        <path fill="#F2B55D" d="M1076.23 305.797a5.231 5.231 0 0 1 4.684-7.571l106.403-.018a5.24 5.24 0 0 1 5.236 5.235 5.236 5.236 0 0 1-5.234 5.235l-106.403.017a5.224 5.224 0 0 1-4.686-2.898M905.989 390.953a5.31 5.31 0 0 1-.551-2.336 5.236 5.236 0 0 1 5.234-5.236l106.413-.021a5.238 5.238 0 0 1 5.236 5.233 5.237 5.237 0 0 1-5.234 5.237l-106.413.022a5.24 5.24 0 0 1-4.685-2.899"/>
        <path fill="#658D95" d="M820.873 433.529a5.306 5.306 0 0 1-.551-2.336 5.235 5.235 0 0 1 5.235-5.235l106.403-.018a5.24 5.24 0 0 1 5.236 5.234 5.233 5.233 0 0 1-5.234 5.236l-106.403.017a5.242 5.242 0 0 1-4.686-2.898"/>
        <path fill="#67B145" d="M650.64 518.68a5.31 5.31 0 0 1-.55-2.336 5.236 5.236 0 0 1 5.234-5.236l106.404-.018a5.241 5.241 0 0 1 5.236 5.235 5.234 5.234 0 0 1-5.235 5.236l-106.403.017a5.245 5.245 0 0 1-4.685-2.898"/>
        <path fill="#F2B55D" d="M565.525 561.255a5.306 5.306 0 0 1-.551-2.336 5.235 5.235 0 0 1 5.234-5.235l106.404-.018a5.234 5.234 0 1 1 .002 10.47l-106.404.017a5.24 5.24 0 0 1-4.685-2.898M480.408 603.831a5.232 5.232 0 0 1 4.683-7.572l106.404-.018a5.235 5.235 0 1 1 .001 10.471l-106.403.017a5.222 5.222 0 0 1-4.685-2.898"/>
        <path fill="#67B145" d="M1395.408 92.938a5.233 5.233 0 0 1 4.683-7.572l106.404-.018c2.892 0 5.222 2.349 5.235 5.235a5.234 5.234 0 0 1-5.234 5.236l-106.403.016a5.218 5.218 0 0 1-4.685-2.897"/>
        <path fill="#658D95" d="M1225.176 178.088a5.232 5.232 0 0 1 4.683-7.571l106.403-.018c2.894.004 5.223 2.35 5.236 5.234a5.236 5.236 0 0 1-5.234 5.236l-106.403.017a5.224 5.224 0 0 1-4.686-2.898"/>
        <path fill="#F38162" d="M1140.06 220.664a5.233 5.233 0 0 1 4.683-7.572l106.403-.018c2.893.004 5.222 2.35 5.235 5.235a5.236 5.236 0 0 1-5.233 5.236l-106.404.016a5.224 5.224 0 0 1-4.685-2.897"/>
        <path fill="#67B145" d="M1054.943 263.24a5.234 5.234 0 0 1 4.683-7.572l106.404-.018a5.236 5.236 0 0 1 .002 10.471l-106.404.017a5.225 5.225 0 0 1-4.685-2.898"/>
        <path fill="#F2B55D" d="M969.827 305.815a5.232 5.232 0 0 1 4.683-7.571l106.404-.018c2.893.004 5.222 2.349 5.235 5.235a5.235 5.235 0 0 1-5.233 5.235l-106.404.017a5.223 5.223 0 0 1-4.685-2.898"/>
        <path fill="#658D95" d="M799.586 390.971a5.3 5.3 0 0 1-.552-2.337 5.237 5.237 0 0 1 5.235-5.235l106.403-.018a5.24 5.24 0 0 1 5.236 5.235 5.233 5.233 0 0 1-5.234 5.236l-106.403.016a5.241 5.241 0 0 1-4.685-2.897M714.47 433.546a5.296 5.296 0 0 1-.552-2.336 5.236 5.236 0 0 1 5.234-5.236l106.404-.017a5.24 5.24 0 0 1 5.235 5.234 5.232 5.232 0 0 1-5.233 5.236l-106.405.017a5.242 5.242 0 0 1-4.684-2.898"/>
        <path fill="#67B145" d="M629.353 476.121a5.324 5.324 0 0 1-.552-2.336 5.237 5.237 0 0 1 5.235-5.235l106.404-.018a5.24 5.24 0 0 1 5.235 5.235 5.233 5.233 0 0 1-5.234 5.236l-106.403.016a5.24 5.24 0 0 1-4.685-2.898"/>
        <path fill="#F2B55D" d="M544.237 518.698a5.3 5.3 0 0 1-.551-2.337 5.236 5.236 0 0 1 5.234-5.235l106.404-.018a5.241 5.241 0 0 1 5.236 5.235 5.234 5.234 0 0 1-5.234 5.236l-106.405.016a5.24 5.24 0 0 1-4.684-2.897"/>
        <path fill="#F38162" d="M459.12 561.273a5.232 5.232 0 0 1 4.683-7.571l106.405-.018a5.239 5.239 0 0 1 5.236 5.235c.005 2.888-2.343 5.234-5.235 5.235l-106.403.017a5.22 5.22 0 0 1-4.685-2.898M374.005 603.849a5.151 5.151 0 0 1-.551-2.337 5.232 5.232 0 0 1 5.234-5.235l106.404-.018a5.24 5.24 0 0 1 5.236 5.235 5.237 5.237 0 0 1-5.234 5.236l-106.404.016a5.224 5.224 0 0 1-4.685-2.897"/>
        <path fill="#67B145" d="M1374.155 263.188a5.234 5.234 0 0 1 4.683-7.573l106.404-.017c2.893.004 5.219 2.345 5.235 5.234a5.236 5.236 0 0 1-5.234 5.236l-106.403.017a5.224 5.224 0 0 1-4.685-2.897"/>
        <path fill="#F38162" d="M1118.806 390.914a5.151 5.151 0 0 1-.55-2.337 5.233 5.233 0 0 1 5.233-5.236l106.404-.017a5.235 5.235 0 0 1 .002 10.47l-106.404.017a5.224 5.224 0 0 1-4.685-2.897"/>
        <path fill="#658D95" d="M863.449 518.645a5.31 5.31 0 0 1-.552-2.336 5.238 5.238 0 0 1 5.235-5.236l106.404-.017a5.238 5.238 0 0 1 5.235 5.234 5.233 5.233 0 0 1-5.234 5.236l-106.403.017a5.242 5.242 0 0 1-4.685-2.898M778.333 561.221a5.3 5.3 0 0 1-.551-2.337 5.236 5.236 0 0 1 5.234-5.235l106.404-.018a5.238 5.238 0 0 1 5.235 5.234 5.231 5.231 0 0 1-5.233 5.236l-106.404.017a5.24 5.24 0 0 1-4.685-2.897"/>
        <path fill="#F2B55D" d="M693.216 603.796a5.31 5.31 0 0 1-.55-2.336 5.236 5.236 0 0 1 5.233-5.236l106.404-.018a5.238 5.238 0 0 1 5.236 5.235 5.233 5.233 0 0 1-5.235 5.236l-106.402.017a5.244 5.244 0 0 1-4.686-2.898"/>
        <path fill="#67B145" d="M1437.983 178.054a5.232 5.232 0 0 1 4.683-7.572l106.404-.018c2.89-.005 5.224 2.354 5.235 5.235a5.231 5.231 0 0 1-5.234 5.235l-106.403.017a5.219 5.219 0 0 1-4.685-2.897M1182.636 305.78a5.23 5.23 0 0 1 4.682-7.572l106.404-.017c2.894.004 5.225 2.354 5.236 5.235a5.236 5.236 0 0 1-5.235 5.235l-106.403.017a5.221 5.221 0 0 1-4.684-2.897"/>
        <path fill="#658D95" d="M671.929 561.239a5.328 5.328 0 0 1-.552-2.337 5.236 5.236 0 0 1 5.235-5.235l106.403-.018a5.243 5.243 0 0 1 5.237 5.235 5.233 5.233 0 0 1-5.235 5.235l-106.403.017a5.241 5.241 0 0 1-4.685-2.897"/>
        <path fill="#F2B55D" d="M586.813 603.814a5.299 5.299 0 0 1-.551-2.336 5.235 5.235 0 0 1 5.234-5.236l106.403-.018a5.243 5.243 0 0 1 5.237 5.235 5.234 5.234 0 0 1-5.235 5.236l-106.404.017a5.244 5.244 0 0 1-4.684-2.898"/>
        <path fill="#67B145" d="M1331.617 390.883a5.234 5.234 0 0 1 4.683-7.572l106.404-.017c2.893.004 5.224 2.354 5.235 5.235a5.236 5.236 0 0 1-5.234 5.235l-106.404.017a5.223 5.223 0 0 1-4.684-2.898"/>
        <path fill="#658D95" d="M1161.384 476.034a5.234 5.234 0 0 1 4.683-7.572l106.405-.016a5.24 5.24 0 0 1 5.235 5.233 5.237 5.237 0 0 1-5.235 5.236l-106.403.017a5.225 5.225 0 0 1-4.685-2.898"/>
        <path fill="#F2B55D" d="M1076.268 518.61a5.233 5.233 0 0 1 4.683-7.571l106.404-.018c2.893.004 5.224 2.354 5.235 5.235a5.235 5.235 0 0 1-5.234 5.235l-106.403.017a5.224 5.224 0 0 1-4.685-2.898"/>
        <path fill="#67B145" d="M991.143 561.19a5.3 5.3 0 0 1-.552-2.336 5.236 5.236 0 0 1 5.234-5.235l106.414-.023a5.236 5.236 0 0 1 .001 10.47l-106.413.022a5.237 5.237 0 0 1-4.684-2.897M1225.21 390.897a5.233 5.233 0 0 1 4.683-7.572l106.407-.014c2.893.005 5.222 2.35 5.235 5.234a5.236 5.236 0 0 1-5.234 5.237l-106.405.012a5.224 5.224 0 0 1-4.685-2.897"/>
        <path fill="#F2B55D" d="M1140.094 433.472a5.234 5.234 0 0 1 4.683-7.572l106.407-.013a5.235 5.235 0 0 1 .002 10.47l-106.408.013a5.225 5.225 0 0 1-4.684-2.898M1054.978 476.047a5.232 5.232 0 0 1 4.683-7.571l106.406-.014c2.893.005 5.222 2.35 5.235 5.234a5.236 5.236 0 0 1-5.234 5.237l-106.405.012a5.224 5.224 0 0 1-4.685-2.898"/>
        <path fill="#67B145" d="M969.853 518.627a5.296 5.296 0 0 1-.552-2.336 5.235 5.235 0 0 1 5.235-5.235l106.415-.018a5.234 5.234 0 1 1 .002 10.47l-106.416.017a5.24 5.24 0 0 1-4.684-2.898"/>
        <path fill="#658D95" d="M799.62 603.779a5.296 5.296 0 0 1-.551-2.336 5.237 5.237 0 0 1 5.235-5.236l106.406-.013a5.24 5.24 0 0 1 5.235 5.234 5.231 5.231 0 0 1-5.233 5.236l-106.407.013a5.242 5.242 0 0 1-4.684-2.898M1374.192 476a5.144 5.144 0 0 1-.55-2.337 5.232 5.232 0 0 1 5.233-5.236l106.404-.017c2.892 0 5.222 2.35 5.236 5.234a5.237 5.237 0 0 1-5.234 5.236l-106.404.017a5.225 5.225 0 0 1-4.685-2.898"/>
        <path fill="#F38162" d="M1289.076 518.575a5.232 5.232 0 0 1 4.683-7.571l106.404-.018c2.892 0 5.222 2.35 5.235 5.235a5.236 5.236 0 0 1-5.233 5.236l-106.404.016a5.223 5.223 0 0 1-4.685-2.898"/>
        <path fill="#F2B55D" d="M1203.96 561.15a5.15 5.15 0 0 1-.551-2.335 5.232 5.232 0 0 1 5.234-5.236l106.404-.018a5.24 5.24 0 0 1 5.236 5.235 5.237 5.237 0 0 1-5.234 5.236l-106.404.017a5.225 5.225 0 0 1-4.685-2.898"/>
        <path fill="#658D95" d="M1118.843 603.726a5.232 5.232 0 0 1 4.683-7.571l106.405-.018c2.891-.001 5.221 2.349 5.235 5.235a5.235 5.235 0 0 1-5.234 5.235l-106.404.017a5.225 5.225 0 0 1-4.685-2.898"/>
        <g transform="translate(1437 382.456)">
            <mask id="b" fill="#fff">
                <use xlink:href="#a"/>
            </mask>
            <path fill="#658D95" d="M1.02 8.41a5.151 5.151 0 0 1-.55-2.336A5.231 5.231 0 0 1 5.703.839L112.107.82c2.894.004 5.222 2.349 5.236 5.235a5.236 5.236 0 0 1-5.234 5.235l-106.404.017A5.224 5.224 0 0 1 1.02 8.41" mask="url(#b)"/>
        </g>
        <path fill="#658D95" d="M1182.672 518.593a5.231 5.231 0 0 1 4.684-7.572l106.403-.018a5.24 5.24 0 0 1 5.236 5.235 5.236 5.236 0 0 1-5.234 5.235l-106.404.017a5.227 5.227 0 0 1-4.685-2.897"/>
        <path fill="#F2B55D" d="M1097.556 561.168a5.233 5.233 0 0 1 4.683-7.572l106.403-.018c2.894.004 5.222 2.35 5.236 5.235a5.237 5.237 0 0 1-5.234 5.236l-106.404.016a5.221 5.221 0 0 1-4.684-2.897"/>
        <path fill="#67B145" d="M1012.43 603.748a5.324 5.324 0 0 1-.552-2.336 5.237 5.237 0 0 1 5.235-5.236l106.413-.022c2.89-.006 5.231 2.344 5.236 5.235a5.236 5.236 0 0 1-5.234 5.235l-106.413.021a5.237 5.237 0 0 1-4.685-2.897"/>
        <path fill="#F38162" d="M1310.364 561.133a5.234 5.234 0 0 1 4.683-7.572l106.404-.018c2.892 0 5.222 2.35 5.235 5.235a5.236 5.236 0 0 1-5.234 5.236l-106.403.017a5.224 5.224 0 0 1-4.685-2.898"/>
    </g>
</svg>
